<svg width="15" height="59" viewBox="0 0 15 59" fill="none" xmlns="http://www.w3.org/2000/svg">
<path d="M14.4524 38.6341C14.4264 38.3969 14.5239 38.3482 14.2054 38.3904C13.6661 38.8291 12.9643 39.0825 12.3372 39.3619C11.905 39.3912 11.9668 39.3684 12.1747 39.037C12.8018 38.5919 14.082 37.3247 14.4166 36.6553C15.2809 34.93 14.9073 30.3194 14.7708 28.2465C14.5174 24.4157 13.9195 20.5849 13.3087 16.8028C12.987 16.7086 12.8213 17.0595 12.6621 17.1277C12.4866 17.2025 12.3112 17.2317 12.1747 17.2902C12.139 16.7736 12.8343 16.4844 12.9155 16.1725C13.0227 15.7566 13.143 14.0735 12.5224 14.8013C12.1877 15.1945 11.9213 15.7468 11.5249 16.1562C11.4306 16.2537 11.0927 16.6014 11.0375 16.6436C10.7938 16.8321 10.5599 17.0043 10.2252 16.9685C10.3324 16.6858 10.4364 16.5526 10.5501 16.3187C10.5891 16.2375 10.7418 16.2342 10.875 15.8313C11.161 15.7338 11.4859 14.9475 11.5249 14.6941C12.8245 12.8258 12.1617 10.9673 11.6418 8.97877C11.1252 7.00652 10.3324 4.56313 9.44213 2.73709C9.1757 2.18473 7.9865 -0.180681 7.30417 0.0110207C6.32617 0.287201 4.73731 4.16673 4.3799 5.19672C3.82429 6.79857 3.17445 8.46865 3.89577 10.1485C3.91852 10.4929 3.95101 10.8698 4.22069 11.1232C4.25968 11.2922 4.35716 11.3734 4.38315 11.4482C4.52612 11.8706 4.76331 12.1727 4.84454 12.5626C4.84454 12.6146 4.85428 12.6699 4.87053 12.7446C4.63984 12.7023 4.53261 12.5139 4.38315 12.4197C4.26943 12.3514 4.17196 12.1727 4.05823 12.0947C3.92502 11.7861 3.66508 11.6334 3.4084 11.4449L2.76181 10.6326C2.44014 12.033 2.10222 13.4139 1.94626 14.8501C1.49787 16.5169 1.23794 18.2747 0.994251 19.9838C0.383404 24.2857 -0.39965 26.9793 2.27118 30.7516C2.34916 30.862 2.29068 31.1902 2.5961 31.239C2.57336 31.135 2.55061 31.0213 2.53112 30.9043C2.55386 31.0148 2.57336 31.1285 2.5961 31.239C2.70657 31.7296 3.18745 32.3697 3.57086 32.7011C3.7918 33.2827 4.03549 33.3184 4.38315 33.6758C4.49362 33.7896 4.59435 33.8903 4.70807 34.0008C4.76331 34.5239 4.62359 34.2444 4.22069 34.1632C3.96401 33.7311 3.46038 33.6271 3.08348 33.3509C2.91452 33.2275 2.67733 33.091 2.5961 33.026C1.63434 32.2689 0.88053 31.2649 0 30.4299V32.9448C0 33.052 0.906523 34.5661 1.06573 34.8001C1.11772 34.878 2.08598 35.921 1.3809 35.6221C1.08523 35.4954 0.484129 34.5921 0 34.4881C0.0714821 37.903 0.649837 43.8458 3.67808 45.9805C4.2012 46.3509 5.07848 46.822 5.73481 46.6661C6.19295 46.5589 5.94276 44.0732 6.0045 43.5729C6.17995 42.3609 6.20919 41.2334 6.16696 40.002C6.30342 38.2474 6.24819 36.3239 6.32941 34.4849C6.39765 32.9188 6.43014 31.3527 6.49187 29.7801C6.55361 28.1587 6.6056 26.5406 6.65433 24.9128C6.75506 21.5011 6.95001 18.1155 6.97925 14.6876C7.24893 14.5186 7.14171 14.0702 7.14496 13.7973C7.15796 12.6341 7.14171 11.4677 7.14496 10.3044C7.51862 8.98202 7.20345 7.45491 7.30742 6.087L7.46663 7.4744C7.44389 7.62386 7.56086 7.64661 7.63234 7.70834C7.63559 8.81631 7.61609 9.92754 7.63234 11.0388C7.63559 11.3149 7.52836 11.7601 7.79805 11.929C7.77855 13.2482 7.77855 14.5836 7.79805 15.906C7.8013 16.179 7.69407 16.6274 7.96376 16.7963C7.94101 20.221 7.92152 24.2954 8.28867 27.6681L8.45113 32.3729C8.45763 32.5354 8.44464 32.6978 8.45113 32.8603C8.50312 34.3192 8.56161 35.7846 8.61359 37.2434C8.62009 37.4059 8.60709 37.5684 8.61359 37.7308L8.78255 39.833C8.78255 39.833 8.7793 39.8363 8.77605 39.8395L8.61359 37.7308C8.66233 39.0305 8.73056 40.3302 8.77605 41.6266C8.7923 42.1107 8.75656 42.6014 8.77605 43.0887C8.80205 43.7093 8.72731 46.091 8.96126 46.4711C9.22119 46.8935 10.4721 46.1755 10.7776 45.9805C12.4249 44.9343 13.2924 42.988 13.9715 41.2205L12.5126 41.7111C13.4224 41.0385 14.6051 39.8688 14.4654 38.6276L14.4524 38.6341Z" fill="#C7CEFF" fill-opacity="0.65"/>
<path d="M8.11499 54.6169C8.20596 54.5096 8.42041 54.5454 8.44315 54.214C8.46915 53.8468 8.0435 51.9525 8.11499 51.8583C8.14098 51.8258 8.40741 51.9915 8.4529 51.6276C8.54063 50.968 8.4594 50.5879 8.11499 50.0713C8.35543 49.6424 8.35218 48.6644 8.28719 48.1965C8.23196 47.8163 7.99802 47.6181 7.94603 47.2412C7.76732 45.9675 8.23196 44.3462 7.79332 43.0952C7.79332 42.6631 7.79657 42.2277 7.79332 41.7956C7.77382 39.6446 7.8453 37.6106 7.63086 35.4662L7.4684 30.9238C7.22796 30.9108 7.18247 31.5054 7.16622 31.6711C7.10449 32.23 7.16298 32.7986 7.14673 33.3574C7.14673 33.4127 7.14673 33.4647 7.14673 33.5199C6.83481 34.251 7.00052 35.2842 6.98427 36.116C6.94203 38.28 6.73733 40.4374 6.82181 42.6079C6.76982 44.1155 6.84456 45.6426 6.82181 47.1502C6.82181 47.3127 6.82506 47.4751 6.82181 47.6376C6.33118 47.5466 6.50664 47.8878 6.49689 48.1997C6.4774 48.7066 6.70484 50.2922 6.63661 50.3767C6.56837 50.4644 6.2532 50.3734 6.16547 50.7991C5.99977 51.5886 6.44815 51.7023 6.49689 51.8583C6.74383 52.6544 5.97702 53.6291 6.49689 54.4544C6.62686 55.1562 6.08425 55.6046 6.17522 56.3064C6.22396 56.6768 6.80556 57.8758 6.98427 58.3502C7.06225 58.5549 7.10124 58.7856 7.14998 59C7.79982 58.8408 7.53988 58.6978 7.63411 58.3502C7.82581 57.6419 8.52763 56.4786 8.58287 56.1245C8.63486 55.8028 8.34568 55.3869 8.19947 54.997C8.17997 54.88 8.15398 54.7533 8.11824 54.6201L8.11499 54.6169ZM7.49764 34.03C7.4684 33.8253 7.43266 33.6239 7.39042 33.4257C7.48789 33.5394 7.50414 33.7701 7.49764 34.03Z" fill="#C7CEFF" fill-opacity="0.65"/>
</svg>
