<svg width="543" height="174" viewBox="0 0 543 174" fill="none" xmlns="http://www.w3.org/2000/svg">
<g opacity="0.65">
<path d="M21.5142 31.8258L27.2496 37.5612L21.5142 43.266L15.8094 37.5612L21.5142 31.8258ZM21.8822 65.3795C24.7448 65.3795 27.0042 64.9194 28.6604 63.9993C30.3371 63.0996 31.5332 61.8524 32.2489 60.2575C32.985 58.6831 33.353 56.8735 33.353 54.8288C33.353 52.6614 32.9952 50.4122 32.2795 48.0813C31.5639 45.7503 30.7358 43.4602 29.7952 41.2111L38.5363 37.96L41.0513 45.4743C41.3989 46.4966 41.8999 47.427 42.5542 48.2653C43.2289 49.0832 44.2104 49.4921 45.4986 49.4921H46.7254V59H45.6213C44.8647 59 44.1593 58.9387 43.505 58.816C42.8507 58.6933 42.2475 58.4582 41.6954 58.1106C41.1842 61.5457 40.0801 64.5105 38.383 67.005C36.7063 69.4996 34.4776 71.4114 31.6968 72.7404C28.9364 74.0899 25.6649 74.7647 21.8822 74.7647C17.4861 74.7647 13.8363 73.9161 10.9328 72.219C8.04977 70.5219 5.90283 68.2012 4.49198 65.2568C3.08113 62.3329 2.37571 59 2.37571 55.2582C2.37571 52.7636 2.65174 50.1873 3.20381 47.5292C3.75588 44.8506 4.55332 42.1823 5.59612 39.5242L13.5398 42.5606C12.7628 44.7688 12.1085 46.9158 11.5769 49.0014C11.0453 51.087 10.7795 53.0192 10.7795 54.7981C10.7795 56.7202 11.1168 58.4786 11.7916 60.0735C12.4663 61.6888 13.6114 62.977 15.2267 63.938C16.842 64.899 19.0605 65.3795 21.8822 65.3795ZM57.3374 30.9364C59.0141 31.9179 60.5578 32.8686 61.9687 33.7888C63.3795 34.6884 64.637 35.6086 65.7412 36.5491C66.8453 37.4692 67.7859 38.4302 68.5629 39.4322C69.3399 40.4341 69.9226 41.5075 70.3111 42.6526C70.72 43.7976 70.9245 45.0551 70.9245 46.4251C70.9245 49.7784 70.1577 52.3649 68.6242 54.1847C67.0907 56.0045 64.9744 57.262 62.2754 57.9572C59.5764 58.6524 56.4786 59 52.9822 59H45.4986V49.4921H52.9515C55.0371 49.4921 56.7854 49.4103 58.1962 49.2467C59.6275 49.0627 60.701 48.7458 61.4166 48.296C62.1527 47.8257 62.5208 47.1611 62.5208 46.3024C62.5208 45.873 62.1834 45.3516 61.5086 44.7382C60.8543 44.1248 59.9853 43.4602 58.9016 42.7446C57.8384 42.0085 56.6831 41.2724 55.4358 40.5363C54.1886 39.7798 52.972 39.0437 51.786 38.328C50.6206 37.6124 49.6084 36.9478 48.7497 36.3344C47.8704 35.7006 47.1957 34.852 46.7254 33.7888C46.2551 32.7051 46.02 31.6009 46.02 30.4763C46.02 29.27 46.296 28.1352 46.8481 27.0719C47.4001 26.0087 48.2487 25.2521 49.3937 24.8023L73.3781 15.0184V24.4342L57.3374 30.9364ZM119.445 62.4044L125.181 68.1398L119.445 73.8446L113.741 68.1398L119.445 62.4044ZM124.506 59H117.421C113.945 59 110.704 58.7853 107.699 58.3559C104.713 57.9265 102.096 57.1598 99.8469 56.0556C97.5977 54.931 95.8393 53.3566 94.5715 51.3323C93.3243 49.3081 92.7006 46.6909 92.7006 43.4807C92.7006 41.5382 92.9153 39.6571 93.3447 37.8373C93.7741 36.0175 94.3057 34.3408 94.9396 32.8073L102.822 35.7517C102.474 36.7331 102.106 37.8884 101.718 39.2175C101.329 40.5261 101.135 41.7836 101.135 42.9899C101.135 44.4621 101.585 45.6378 102.485 46.5171C103.384 47.3963 104.601 48.0506 106.134 48.48C107.668 48.8889 109.406 49.165 111.348 49.3081C113.291 49.4308 115.315 49.4921 117.421 49.4921H124.598C126.581 49.4921 128.309 49.4103 129.781 49.2467C131.254 49.0832 132.48 48.8174 133.462 48.4493C134.443 48.0813 135.179 47.5905 135.67 46.9771C136.161 46.3433 136.406 45.5663 136.406 44.6462C136.406 43.2558 136.232 41.6916 135.885 39.9536C135.558 38.2156 135.19 36.5696 134.781 35.0156L143.368 32.8686C143.777 34.852 144.094 36.8047 144.319 38.7267C144.565 40.6488 144.687 42.4992 144.687 44.2781C144.687 47.4065 144.166 49.9419 143.123 51.8844C142.08 53.8269 140.629 55.3093 138.768 56.3317C136.928 57.354 134.791 58.0594 132.358 58.4479C129.925 58.816 127.307 59 124.506 59ZM151.159 15.8465H160.023V43.634C160.023 45.6787 160.288 47.1714 160.82 48.1119C161.372 49.0321 162.63 49.4921 164.593 49.4921H165.359V59H164.593C159.89 59 156.475 57.7936 154.349 55.3809C152.222 52.9477 151.159 49.3285 151.159 44.5235V15.8465ZM183.24 15.3557L188.976 21.0911L183.24 26.7959L177.536 21.0911L183.24 15.3557ZM205.722 38.1133V46.6397C204.495 46.7624 203.268 47.0487 202.041 47.4985C200.835 47.9279 199.813 48.3164 198.974 48.664C199.281 48.8889 199.823 49.0627 200.6 49.1854C201.397 49.3081 202.317 49.3899 203.36 49.4308C204.403 49.4717 205.446 49.4921 206.489 49.4921H208.175V59H206.366C203.933 59 201.786 58.7955 199.925 58.3866C198.085 57.9776 196.541 57.2722 195.294 56.2703C194.067 55.248 193.147 53.8473 192.533 52.0684C190.059 53.3771 187.575 54.563 185.08 55.6262C182.586 56.669 180.03 57.4971 177.413 58.1106C174.816 58.7035 172.097 59 169.254 59H164.132V49.4921H169.346C171.248 49.4921 173.047 49.3694 174.744 49.1241C176.442 48.8583 178.128 48.4698 179.805 47.9586C181.502 47.427 183.281 46.7624 185.142 45.965C187.023 45.1471 189.088 44.1861 191.337 43.082C189.742 42.489 188.342 41.9574 187.135 41.4871C185.929 41.0168 184.876 40.6181 183.976 40.2909C183.097 39.9433 182.361 39.6877 181.768 39.5242C181.175 39.3401 180.705 39.2481 180.357 39.2481C179.274 39.2481 178.292 39.5957 177.413 40.2909C176.534 40.9657 175.828 41.6507 175.297 42.3459L173.518 44.5848L166.249 41.027L167.782 38.512C169.234 36.1197 171.003 34.1159 173.088 32.5006C175.174 30.8853 177.607 30.0776 180.388 30.0776C181.553 30.0776 182.903 30.3434 184.436 30.8751C185.97 31.4067 187.626 32.0712 189.405 32.8686C191.184 33.6661 193.004 34.4635 194.864 35.261C196.746 36.0584 198.606 36.7331 200.446 37.2852C202.287 37.8168 204.045 38.0929 205.722 38.1133ZM206.949 49.4921H209.126V59H206.949V49.4921ZM220.566 21.2752L225.995 26.6732L220.566 32.1326L215.138 26.6732L220.566 21.2752ZM210.138 21.2752L215.628 26.6732L210.138 32.1326L204.771 26.6732L210.138 21.2752ZM216.579 37.3466L224.738 36.3651L225.382 45.4436C225.443 46.4046 225.637 47.1918 225.964 47.8052C226.292 48.3982 226.782 48.8276 227.437 49.0934C228.111 49.3592 228.98 49.4921 230.044 49.4921H230.688V59H229.982C228.653 59 227.437 58.8364 226.332 58.5093C225.228 58.1617 224.237 57.7016 223.357 57.1291C222.499 56.5566 221.742 55.9023 221.088 55.1662C219.841 56.3317 218.368 57.262 216.671 57.9572C214.974 58.6524 213.165 59 211.243 59H208.298V49.4921H211.243C213.43 49.4921 214.923 49.1547 215.72 48.48C216.518 47.7848 216.917 46.4455 216.917 44.4621C216.917 43.2353 216.886 42.0289 216.825 40.843C216.763 39.6366 216.681 38.4711 216.579 37.3466ZM234.307 59H229.461V49.4921H234.368C235.82 49.4921 236.822 49.0321 237.374 48.1119C237.926 47.1918 238.202 46.0161 238.202 44.5848C238.202 43.1944 238.028 41.6609 237.681 39.9842C237.333 38.3076 236.975 36.6718 236.607 35.0769L245.164 32.8686C245.573 34.852 245.89 36.8149 246.115 38.7574C246.36 40.6999 246.483 42.5606 246.483 44.3395C246.483 47.1203 246.115 49.6148 245.379 51.8231C244.643 54.0314 243.385 55.7796 241.606 57.0678C239.848 58.3559 237.415 59 234.307 59ZM237.895 18.2694L243.631 24.0048L237.895 29.7096L232.191 24.0048L237.895 18.2694ZM261.88 15.8465V58.9693H253.016V15.8465H261.88ZM511.968 15.8465H520.832V43.634C520.832 45.6787 521.097 47.1714 521.629 48.1119C522.181 49.0321 523.439 49.4921 525.401 49.4921H526.168V59H525.401C520.699 59 517.284 57.7936 515.158 55.3809C513.031 52.9477 511.968 49.3285 511.968 44.5235V15.8465ZM524.911 49.4921H526.383V59H524.911V49.4921ZM531.229 62.4044L536.964 68.1398L531.229 73.8446L525.524 68.1398L531.229 62.4044ZM530.401 59H525.555V49.4921H530.462C531.914 49.4921 532.916 49.0321 533.468 48.1119C534.02 47.1918 534.296 46.0161 534.296 44.5848C534.296 43.1944 534.122 41.6609 533.775 39.9842C533.427 38.3076 533.069 36.6718 532.701 35.0769L541.258 32.8686C541.667 34.852 541.984 36.8149 542.209 38.7574C542.454 40.6999 542.577 42.5606 542.577 44.3395C542.577 47.1203 542.209 49.6148 541.473 51.8231C540.737 54.0314 539.479 55.7796 537.7 57.0678C535.942 58.3559 533.509 59 530.401 59ZM19.858 129.826L25.5934 135.561L19.858 141.266L14.1532 135.561L19.858 129.826ZM20.226 163.379C23.0886 163.379 25.348 162.919 27.0042 161.999C28.6809 161.1 29.877 159.852 30.5927 158.257C31.3288 156.683 31.6968 154.874 31.6968 152.829C31.6968 150.661 31.339 148.412 30.6234 146.081C29.9077 143.75 29.0796 141.46 28.139 139.211L36.8802 135.96L39.3951 143.474C39.7427 144.497 40.2437 145.427 40.898 146.265C41.5728 147.083 42.5542 147.492 43.8424 147.492H45.0692V157H43.9651C43.2085 157 42.5031 156.939 41.8488 156.816C41.1945 156.693 40.5913 156.458 40.0392 156.111C39.5281 159.546 38.4239 162.51 36.7268 165.005C35.0501 167.5 32.8214 169.411 30.0406 170.74C27.2803 172.09 24.0087 172.765 20.226 172.765C15.8299 172.765 12.1801 171.916 9.27662 170.219C6.39358 168.522 4.24664 166.201 2.83579 163.257C1.42494 160.333 0.719518 157 0.719518 153.258C0.719518 150.764 0.995554 148.187 1.54762 145.529C2.0997 142.851 2.89713 140.182 3.93993 137.524L11.8836 140.561C11.1066 142.769 10.4523 144.916 9.9207 147.001C9.38907 149.087 9.12326 151.019 9.12326 152.798C9.12326 154.72 9.46064 156.479 10.1354 158.073C10.8101 159.689 11.9552 160.977 13.5705 161.938C15.1858 162.899 17.4043 163.379 20.226 163.379ZM55.6812 128.936C57.3579 129.918 58.9016 130.869 60.3125 131.789C61.7233 132.688 62.9808 133.609 64.085 134.549C65.1891 135.469 66.1297 136.43 66.9067 137.432C67.6837 138.434 68.2664 139.508 68.6549 140.653C69.0638 141.798 69.2683 143.055 69.2683 144.425C69.2683 147.778 68.5015 150.365 66.968 152.185C65.4345 154.005 63.3182 155.262 60.6192 155.957C57.9202 156.652 54.8225 157 51.326 157H43.8424V147.492H51.2953C53.3809 147.492 55.1292 147.41 56.54 147.247C57.9713 147.063 59.0448 146.746 59.7604 146.296C60.4965 145.826 60.8646 145.161 60.8646 144.302C60.8646 143.873 60.5272 143.352 59.8524 142.738C59.1981 142.125 58.3291 141.46 57.2454 140.745C56.1822 140.008 55.0269 139.272 53.7797 138.536C52.5324 137.78 51.3158 137.044 50.1299 136.328C48.9644 135.612 47.9522 134.948 47.0935 134.334C46.2142 133.701 45.5395 132.852 45.0692 131.789C44.5989 130.705 44.3638 129.601 44.3638 128.476C44.3638 127.27 44.6398 126.135 45.1919 125.072C45.744 124.009 46.5925 123.252 47.7375 122.802L71.722 113.018V122.434L55.6812 128.936ZM511.968 113.846H520.832V141.634C520.832 143.679 521.097 145.171 521.629 146.112C522.181 147.032 523.439 147.492 525.401 147.492H526.168V157H525.401C520.699 157 517.284 155.794 515.158 153.381C513.031 150.948 511.968 147.329 511.968 142.523V113.846ZM524.911 147.492H526.383V157H524.911V147.492ZM531.229 160.404L536.964 166.14L531.229 171.845L525.524 166.14L531.229 160.404ZM530.401 157H525.555V147.492H530.462C531.914 147.492 532.916 147.032 533.468 146.112C534.02 145.192 534.296 144.016 534.296 142.585C534.296 141.194 534.122 139.661 533.775 137.984C533.427 136.308 533.069 134.672 532.701 133.077L541.258 130.869C541.667 132.852 541.984 134.815 542.209 136.757C542.454 138.7 542.577 140.561 542.577 142.339C542.577 145.12 542.209 147.615 541.473 149.823C540.737 152.031 539.479 153.78 537.7 155.068C535.942 156.356 533.509 157 530.401 157Z" fill="#C7CEFF"/>
<path d="M315.676 24.7103L321.105 30.1083L315.676 35.5677L310.247 30.1083L315.676 24.7103ZM305.248 24.7103L310.738 30.1083L305.248 35.5677L299.881 30.1083L305.248 24.7103ZM327.085 37.3466L335.244 36.3651L335.888 45.4436C335.99 46.9158 336.379 47.9586 337.053 48.572C337.728 49.1854 338.873 49.4921 340.488 49.4921H341.194V59H340.488C338.137 59 336.174 58.5706 334.6 57.7118C333.025 56.8531 331.727 55.708 330.704 54.2767C328.823 55.9534 326.544 57.1598 323.865 57.8959C321.186 58.632 317.751 59 313.56 59H308.438C304.962 59 301.721 58.7853 298.715 58.3559C295.73 57.9265 293.113 57.1598 290.863 56.0556C288.614 54.931 286.856 53.3566 285.588 51.3323C284.341 49.3081 283.717 46.6909 283.717 43.4807C283.717 41.5382 283.932 39.6571 284.361 37.8373C284.791 36.0175 285.322 34.3408 285.956 32.8073L293.838 35.7824C293.491 36.7638 293.123 37.9088 292.734 39.2175C292.346 40.5261 292.152 41.7836 292.152 42.9899C292.152 44.4621 292.601 45.6378 293.501 46.5171C294.401 47.3963 295.617 48.0506 297.151 48.48C298.684 48.8889 300.422 49.165 302.365 49.3081C304.307 49.4308 306.332 49.4921 308.438 49.4921H313.56C316.463 49.4921 318.947 49.4001 321.013 49.2161C323.078 49.0321 324.662 48.5822 325.767 47.8666C326.871 47.1305 327.423 45.9752 327.423 44.4008C327.423 43.3171 327.382 42.1209 327.3 40.8123C327.239 39.5037 327.167 38.3485 327.085 37.3466ZM339.936 49.4921H342.39V59H339.936V49.4921ZM351.131 62.7418L356.56 68.1398L351.131 73.5992L345.702 68.1398L351.131 62.7418ZM340.703 62.7418L346.193 68.1398L340.703 73.5992L335.336 68.1398L340.703 62.7418ZM349.904 37.3466L358.063 36.3651L358.707 45.4436C358.768 46.4046 358.962 47.1918 359.29 47.8052C359.617 48.3982 360.107 48.8276 360.762 49.0934C361.436 49.3592 362.305 49.4921 363.369 49.4921H364.013V59H363.307C361.978 59 360.762 58.8364 359.658 58.5093C358.553 58.1617 357.562 57.7016 356.683 57.1291C355.824 56.5566 355.067 55.9023 354.413 55.1662C353.166 56.3317 351.693 57.262 349.996 57.9572C348.299 58.6524 346.49 59 344.568 59H341.623V49.4921H344.568C346.755 49.4921 348.248 49.1547 349.046 48.48C349.843 47.7848 350.242 46.4455 350.242 44.4621C350.242 43.2353 350.211 42.0289 350.15 40.843C350.088 39.6366 350.007 38.4711 349.904 37.3466ZM376.802 8.20948L382.538 13.9449L376.802 19.6496L371.098 13.9449L376.802 8.20948ZM377.569 38.7881C378.326 38.7881 379.082 38.7574 379.839 38.6961C380.616 38.6143 381.362 38.5018 382.078 38.3587C381.955 37.7044 381.771 37.0092 381.526 36.2731C381.301 35.537 380.994 34.852 380.606 34.2182C380.238 33.5843 379.798 33.0731 379.287 32.6846C378.796 32.2757 378.223 32.0712 377.569 32.0712C376.813 32.0712 376.148 32.2859 375.576 32.7153C375.024 33.1447 374.594 33.6968 374.287 34.3715C374.001 35.0463 373.858 35.7619 373.858 36.5184C373.858 37.5408 374.226 38.1747 374.962 38.42C375.719 38.6654 376.588 38.7881 377.569 38.7881ZM374.471 49.4921C376.107 49.4921 377.498 49.4205 378.643 49.2774C379.788 49.1343 380.667 48.848 381.28 48.4186C381.914 47.9688 382.241 47.2941 382.262 46.3944C381.587 46.4966 380.861 46.5784 380.084 46.6397C379.307 46.7011 378.551 46.7318 377.815 46.7318C374.175 46.7318 371.261 45.9752 369.073 44.4621C366.906 42.9286 365.822 40.4136 365.822 36.9172C365.822 34.668 366.303 32.4699 367.264 30.323C368.245 28.176 369.625 26.4074 371.404 25.017C373.183 23.6266 375.259 22.9314 377.631 22.9314C379.961 22.9314 381.955 23.5141 383.611 24.6796C385.267 25.8246 386.607 27.3582 387.629 29.2802C388.672 31.2022 389.439 33.3594 389.929 35.7517C390.42 38.1235 390.666 40.5363 390.666 42.9899C390.666 46.2001 390.328 48.848 389.653 50.9336C388.999 53.0192 387.987 54.655 386.617 55.8409C385.267 57.0064 383.55 57.8243 381.464 58.2946C379.399 58.7649 376.946 59 374.103 59H362.817V49.4921H374.471ZM397.198 15.8465H406.062V43.634C406.062 45.6787 406.328 47.1714 406.86 48.1119C407.412 49.0321 408.669 49.4921 410.632 49.4921H411.399V59H410.632C405.929 59 402.515 57.7936 400.388 55.3809C398.262 52.9477 397.198 49.3285 397.198 44.5235V15.8465ZM427.348 1.60682C427.388 2.40425 427.45 3.25281 427.532 4.15248C427.634 5.0317 427.838 5.78824 428.145 6.4221C428.452 7.03551 428.932 7.34222 429.587 7.34222C430.159 7.34222 430.548 7.1173 430.752 6.66747C430.956 6.19718 431.059 5.62467 431.059 4.94991C431.059 4.23427 430.987 3.50839 430.844 2.7723C430.701 2.01576 430.568 1.34101 430.445 0.74804L433.788 0.0732872C434.218 1.48413 434.432 2.9461 434.432 4.45918C434.432 6.31987 434.075 7.84317 433.359 9.0291C432.664 10.215 431.498 10.808 429.863 10.808C429.249 10.808 428.626 10.7262 427.992 10.5626C427.358 10.3991 426.775 10.031 426.243 9.45849C425.814 10.5217 425.139 11.2476 424.219 11.6361C423.319 12.0042 422.42 12.1882 421.52 12.1882C419.905 12.1882 418.729 11.6157 417.993 10.4706C417.277 9.30514 416.92 7.93518 416.92 6.36076C416.92 5.29751 417.083 4.14225 417.41 2.89498L420.508 3.38571C420.426 3.77421 420.344 4.20359 420.263 4.67388C420.181 5.12371 420.14 5.57355 420.14 6.02338C420.14 6.69814 420.263 7.28088 420.508 7.77161C420.753 8.26234 421.213 8.5077 421.888 8.5077C422.665 8.5077 423.217 8.3339 423.544 7.9863C423.892 7.61826 424.096 7.04574 424.158 6.26875C424.24 5.47131 424.281 4.42851 424.281 3.14035L424.25 1.91352L427.348 1.60682ZM427.102 15.049L432.838 20.7844L427.102 26.4892L421.397 20.7844L427.102 15.049ZM427.378 38.8494C426.826 38.8494 426.243 39.0641 425.63 39.4935C425.037 39.9024 424.526 40.4136 424.097 41.027C423.667 41.62 423.452 42.1925 423.452 42.7446C423.452 43.4807 423.677 44.1963 424.127 44.8915C424.577 45.5867 425.109 46.2104 425.722 46.7624C426.356 47.2941 426.928 47.703 427.44 47.9893C427.992 47.6621 428.574 47.2327 429.188 46.7011C429.822 46.149 430.353 45.5356 430.783 44.8609C431.233 44.1657 431.457 43.4398 431.457 42.6832C431.457 42.1107 431.233 41.5382 430.783 40.9657C430.333 40.3727 429.791 39.8718 429.157 39.4628C428.523 39.0539 427.93 38.8494 427.378 38.8494ZM439.8 42.6832C439.8 43.5216 439.739 44.3292 439.616 45.1062C439.514 45.8832 439.33 46.6295 439.064 47.3452C438.798 48.0608 438.43 48.7765 437.96 49.4921C438.185 49.4921 438.389 49.4921 438.573 49.4921C438.777 49.4921 438.972 49.4921 439.156 49.4921C439.36 49.4921 439.544 49.4921 439.708 49.4921H442.652V59H438.236C437.029 59 435.792 58.8773 434.525 58.632C433.277 58.3661 432.04 58.0492 430.813 57.6812C429.607 57.3131 428.442 56.9451 427.317 56.577C426.172 56.9655 424.966 57.3438 423.698 57.7118C422.43 58.0799 421.142 58.3866 419.833 58.632C418.545 58.8773 417.267 59 415.999 59H410.172V49.4921H414.803C415.069 49.4921 415.304 49.4921 415.509 49.4921C415.713 49.4921 415.928 49.4921 416.153 49.4921C416.378 49.4717 416.633 49.4614 416.92 49.4614C416.47 48.7458 416.112 48.0199 415.846 47.2838C415.58 46.5477 415.386 45.8014 415.263 45.0449C415.161 44.2679 415.11 43.4602 415.11 42.6219C415.11 40.9452 415.447 39.3401 416.122 37.8066C416.817 36.2526 417.737 34.8725 418.883 33.6661C420.048 32.4597 421.357 31.5089 422.808 30.8137C424.26 30.0981 425.763 29.7402 427.317 29.7402C428.912 29.7402 430.445 30.0878 431.918 30.783C433.41 31.4782 434.749 32.4393 435.935 33.6661C437.121 34.8725 438.062 36.2526 438.757 37.8066C439.452 39.3401 439.8 40.9657 439.8 42.6832ZM469.397 14.5276L474.488 19.6189L469.397 24.7103L464.306 19.6189L469.397 14.5276ZM474.795 22.3793L479.886 27.4706L474.795 32.5619L469.704 27.4706L474.795 22.3793ZM464.03 22.3793L469.121 27.4706L464.03 32.5619L458.938 27.4706L464.03 22.3793ZM462.833 59C460.809 59 459.081 58.6626 457.65 57.9879C456.239 57.2927 455.074 56.393 454.154 55.2889C452.988 56.4134 451.628 57.3131 450.074 57.9879C448.521 58.6626 446.588 59 444.278 59H441.456V49.4921H444.339C445.791 49.4921 446.946 49.4103 447.805 49.2467C448.684 49.0627 449.318 48.664 449.706 48.0506C450.115 47.4167 450.32 46.4251 450.32 45.0755C450.32 44.7688 450.299 44.2065 450.259 43.3887C450.218 42.5503 450.156 41.6507 450.074 40.6897C450.013 39.7082 449.952 38.8596 449.89 38.144L458.08 37.1319L458.754 45.781C458.857 47.0691 459.235 48.0097 459.889 48.6027C460.564 49.1956 461.566 49.4921 462.895 49.4921C464.51 49.4921 465.584 49.1854 466.115 48.572C466.647 47.9586 466.913 46.7931 466.913 45.0755C466.913 44.7893 466.892 44.2372 466.851 43.4193C466.81 42.581 466.749 41.6711 466.667 40.6897C466.606 39.7082 466.545 38.8596 466.483 38.144L474.672 37.1319L475.347 45.781C475.429 46.9669 475.715 47.887 476.206 48.5413C476.717 49.1752 477.586 49.4921 478.813 49.4921C479.569 49.4921 480.162 49.2876 480.592 48.8787C481.021 48.4493 481.328 47.887 481.512 47.1918C481.696 46.4762 481.788 45.689 481.788 44.8302C481.788 43.6443 481.675 42.4174 481.451 41.1497C481.226 39.8615 480.98 38.7063 480.714 37.6839C480.449 36.6411 480.254 35.905 480.132 35.4756L488.566 33.1754C488.995 34.852 489.343 36.6309 489.609 38.512C489.895 40.3727 490.038 42.2334 490.038 44.0941C490.038 46.6909 489.691 49.1241 488.995 51.3937C488.321 53.6633 487.176 55.5036 485.56 56.9144C483.945 58.3048 481.716 59 478.874 59C477.054 59 475.511 58.632 474.243 57.8959C472.975 57.1393 471.902 56.2499 471.023 55.2275C470 56.2294 468.835 57.1086 467.526 57.8652C466.217 58.6217 464.653 59 462.833 59ZM108.496 143.352C108.496 142.84 108.373 142.176 108.128 141.358C107.903 140.52 107.678 139.845 107.453 139.334L101.288 125.716L109.048 121.913L116.808 139.763C117.36 141.01 117.851 142.227 118.28 143.413C118.73 144.599 119.261 145.58 119.875 146.357C120.488 147.114 121.296 147.492 122.298 147.492H123.586V157H122.298C120.764 157 119.425 156.806 118.28 156.417C117.155 156.008 116.164 155.466 115.305 154.792C114.446 154.097 113.669 153.32 112.974 152.461C111.931 153.401 110.766 154.209 109.477 154.884C108.189 155.558 106.738 156.08 105.122 156.448C103.527 156.796 101.728 156.969 99.7242 156.969C97.8635 156.969 96.2891 156.908 95.0009 156.785C93.7332 156.663 92.4144 156.438 91.0444 156.111V146.603C92.3122 146.909 93.6821 147.155 95.1543 147.339C96.6469 147.502 98.0169 147.584 99.2642 147.584C100.593 147.584 101.963 147.472 103.374 147.247C104.805 147.022 106.012 146.603 106.993 145.989C107.995 145.376 108.496 144.497 108.496 143.352ZM122.359 147.492H140.915V157H122.359V147.492ZM139.719 147.492H158.274V157H139.719V147.492ZM157.078 147.492H175.634V157H157.078V147.492ZM174.438 147.492H192.994V157H174.438V147.492ZM219.738 112.528L224.83 117.619L219.738 122.71L214.647 117.619L219.738 112.528ZM225.136 120.379L230.228 125.471L225.136 130.562L220.045 125.471L225.136 120.379ZM214.371 120.379L219.462 125.471L214.371 130.562L209.28 125.471L214.371 120.379ZM213.175 157C211.151 157 209.423 156.663 207.991 155.988C206.581 155.293 205.415 154.393 204.495 153.289C203.33 154.413 201.97 155.313 200.416 155.988C198.862 156.663 196.93 157 194.619 157H191.797V147.492H194.68C196.132 147.492 197.287 147.41 198.146 147.247C199.025 147.063 199.659 146.664 200.048 146.051C200.457 145.417 200.661 144.425 200.661 143.076C200.661 142.769 200.641 142.207 200.6 141.389C200.559 140.55 200.498 139.651 200.416 138.69C200.354 137.708 200.293 136.86 200.232 136.144L208.421 135.132L209.096 143.781C209.198 145.069 209.576 146.01 210.23 146.603C210.905 147.196 211.907 147.492 213.236 147.492C214.851 147.492 215.925 147.185 216.457 146.572C216.988 145.959 217.254 144.793 217.254 143.076C217.254 142.789 217.234 142.237 217.193 141.419C217.152 140.581 217.09 139.671 217.009 138.69C216.947 137.708 216.886 136.86 216.825 136.144L225.014 135.132L225.688 143.781C225.77 144.967 226.056 145.887 226.547 146.541C227.058 147.175 227.927 147.492 229.154 147.492C229.911 147.492 230.504 147.288 230.933 146.879C231.362 146.449 231.669 145.887 231.853 145.192C232.037 144.476 232.129 143.689 232.129 142.83C232.129 141.644 232.017 140.417 231.792 139.15C231.567 137.862 231.322 136.706 231.056 135.684C230.79 134.641 230.596 133.905 230.473 133.476L238.907 131.175C239.337 132.852 239.684 134.631 239.95 136.512C240.236 138.373 240.38 140.233 240.38 142.094C240.38 144.691 240.032 147.124 239.337 149.394C238.662 151.663 237.517 153.504 235.902 154.914C234.286 156.305 232.058 157 229.216 157C227.396 157 225.852 156.632 224.584 155.896C223.317 155.139 222.243 154.25 221.364 153.228C220.341 154.229 219.176 155.109 217.867 155.865C216.559 156.622 214.995 157 213.175 157ZM239.459 173.777L236.086 164.944C238.969 164.31 241.494 163.512 243.661 162.551C245.849 161.59 247.546 160.251 248.753 158.534C249.959 156.836 250.562 154.567 250.562 151.725C250.562 149.844 250.245 147.707 249.611 145.315C248.998 142.902 248.354 140.693 247.679 138.69L256.543 135.807C257.361 138.097 257.985 140.581 258.414 143.26C258.843 145.918 259.058 148.474 259.058 150.927C259.058 155.385 258.23 159.167 256.574 162.275C254.917 165.404 252.617 167.909 249.673 169.79C246.728 171.671 243.324 173 239.459 173.777ZM329.631 112.528L334.722 117.619L329.631 122.71L324.54 117.619L329.631 112.528ZM335.029 120.379L340.12 125.471L335.029 130.562L329.938 125.471L335.029 120.379ZM324.264 120.379L329.355 125.471L324.264 130.562L319.172 125.471L324.264 120.379ZM298.715 163.379C301.578 163.379 303.837 162.919 305.493 161.999C307.17 161.1 308.366 159.852 309.082 158.257C309.818 156.683 310.186 154.874 310.186 152.829C310.186 150.661 309.828 148.412 309.112 146.081C308.397 143.75 307.569 141.46 306.628 139.211L315.369 135.96L317.486 142.401C317.935 143.75 318.579 144.936 319.418 145.959C320.277 146.96 321.514 147.472 323.129 147.492C324.744 147.492 325.818 147.185 326.349 146.572C326.881 145.959 327.147 144.793 327.147 143.076C327.147 142.789 327.126 142.237 327.085 141.419C327.045 140.581 326.983 139.671 326.901 138.69C326.84 137.708 326.779 136.86 326.717 136.144L334.937 135.132L335.581 143.781C335.663 144.967 335.959 145.887 336.471 146.541C336.982 147.175 337.841 147.492 339.047 147.492C339.824 147.492 340.427 147.318 340.857 146.971C341.306 146.623 341.623 146.122 341.807 145.468C341.991 144.814 342.083 144.016 342.083 143.076C342.083 142.339 342.032 141.215 341.93 139.702C341.848 138.189 341.756 136.809 341.654 135.561L349.874 134.549L350.518 143.781C350.62 145.212 351.008 146.194 351.683 146.725C352.378 147.237 353.483 147.492 354.996 147.492H355.916V157H355.057C353.217 157 351.581 156.683 350.15 156.049C348.718 155.415 347.553 154.587 346.653 153.565C345.835 154.505 344.793 155.313 343.525 155.988C342.257 156.663 340.775 157 339.078 157C337.278 157 335.745 156.632 334.477 155.896C333.209 155.139 332.136 154.25 331.257 153.228C330.234 154.229 329.069 155.109 327.76 155.865C326.452 156.622 324.887 157 323.068 157C322.229 157 321.442 156.877 320.706 156.632C319.97 156.387 319.285 156.039 318.651 155.589C318.201 159.126 317.128 162.173 315.431 164.729C313.754 167.305 311.505 169.289 308.683 170.679C305.882 172.069 302.559 172.765 298.715 172.765C294.319 172.765 290.669 171.916 287.766 170.219C284.883 168.522 282.736 166.201 281.325 163.257C279.914 160.333 279.209 157 279.209 153.258C279.209 150.764 279.485 148.187 280.037 145.529C280.589 142.851 281.386 140.182 282.429 137.524L290.373 140.561C289.596 142.769 288.941 144.916 288.41 147.001C287.878 149.087 287.612 151.019 287.612 152.798C287.612 154.72 287.95 156.479 288.624 158.073C289.299 159.689 290.444 160.977 292.06 161.938C293.675 162.899 295.893 163.379 298.715 163.379ZM354.72 147.492H373.275V157H354.72V147.492ZM372.079 147.492H390.635V157H372.079V147.492ZM389.439 147.492H407.994V157H389.439V147.492ZM406.798 147.492H425.354V157H406.798V147.492ZM429.004 157H424.158V147.492H429.065C430.517 147.492 431.519 147.032 432.071 146.112C432.623 145.192 432.899 144.016 432.899 142.585C432.899 141.194 432.725 139.661 432.378 137.984C432.03 136.308 431.672 134.672 431.304 133.077L439.861 130.869C440.27 132.852 440.587 134.815 440.812 136.757C441.057 138.7 441.18 140.561 441.18 142.339C441.18 145.12 440.812 147.615 440.076 149.823C439.34 152.031 438.082 153.78 436.303 155.068C434.545 156.356 432.112 157 429.004 157ZM432.592 116.269L438.328 122.005L432.592 127.71L426.888 122.005L432.592 116.269ZM456.577 113.846V156.969H447.713V113.846H456.577ZM471.575 147.615C473.067 147.615 474.601 147.513 476.175 147.308C477.77 147.104 479.109 146.705 480.193 146.112C481.277 145.499 481.819 144.578 481.819 143.352C481.819 142.063 481.154 140.683 479.825 139.211C478.516 137.739 476.829 136.308 474.764 134.917C472.699 133.506 470.532 132.29 468.262 131.267L472.311 122.71C474.396 123.712 476.482 124.867 478.567 126.176C480.674 127.464 482.596 128.936 484.334 130.593C486.092 132.228 487.493 134.069 488.535 136.113C489.599 138.158 490.13 140.438 490.13 142.953C490.13 146.368 489.353 149.097 487.799 151.142C486.266 153.187 484.139 154.669 481.42 155.589C478.7 156.489 475.572 156.939 472.035 156.939C470.338 156.939 468.763 156.888 467.311 156.785C465.88 156.663 464.469 156.448 463.079 156.141V146.664C464.408 146.93 465.87 147.155 467.465 147.339C469.06 147.523 470.43 147.615 471.575 147.615Z" fill="#C7CEFF"/>
</g>
</svg>
